<mxfile host="app.diagrams.net" modified="2024-02-28T11:54:38.397Z" agent="Mozilla/5.0 (Macintosh; Intel Mac OS X 10_15_7) AppleWebKit/605.1.15 (KHTML, like Gecko) Version/17.2.1 Safari/605.1.15" version="23.1.7" etag="FTxwyDC03DYOuoD8Knjc" type="github">
  <diagram name="Page-1" id="d5gRb7zunvB6BdZA_2YK">
    <mxGraphModel>
      <root>
        <mxCell id="0" />
        <mxCell id="1" parent="0" />
      </root>
    </mxGraphModel>
  </diagram>
</mxfile>
